<svg id="Layer_1" data-name="Layer 1" xmlns="http://www.w3.org/2000/svg" width="150.03" height="40.06" viewBox="0 0 150.03 40.06"><g id="Layer_1-2" data-name="Layer 1"><g id="_49783af3-95ec-40ca-9b83-33f9fad262dd" data-name="49783af3-95ec-40ca-9b83-33f9fad262dd"><path d="M41.89,12.62C39.36,12.62,37,14,37,16.51S38.75,20,41.66,20.7c1.59.38,2.06,1,2.06,1.63S43,23.51,42.1,23.51a2.08,2.08,0,0,1-2.2-1.72H36.55C36.75,24.66,39,26,42.2,26c2.6,0,5-1.28,5-3.89,0-2-1.15-3.38-4-4.06-2.13-.5-2.71-1-2.71-1.82s.51-1.15,1.29-1.15c1.11,0,1.65.71,1.79,1.76H47C46.7,14.48,45.31,12.62,41.89,12.62ZM54.37,25.71h3.29a14.38,14.38,0,0,1-.17-2.5V20.43c0-.6,0-1.18-.07-1.69-.14-1.79-1.22-3.21-4.36-3.21-2.51,0-4.57,1.32-4.57,3.65h3.14c.07-.88.51-1.35,1.29-1.35a1.06,1.06,0,0,1,1.18,1,5,5,0,0,1,0,.74v.14H53.5c-3.35,0-5.38,1.28-5.38,3.41A3,3,0,0,0,51.3,26a4.77,4.77,0,0,0,2.47-.68l.4-1.05Zm-1.72-2c-.68,0-1.12-.34-1.12-.92,0-1,1.09-1.38,2.61-1.25v.64A1.49,1.49,0,0,1,52.65,23.72Zm13.43-8.19a4.68,4.68,0,0,0-2.54.61l-.74,1.11V12.08H59.45V25.74H62.8V24.43l.64,1a5,5,0,0,0,2.3.51c2.54,0,4.7-1.93,4.7-5.44C70.44,17.59,68.78,15.53,66.08,15.53Zm-1.25,8.19c-1,0-2-.68-2-2.68V20.6c0-2.06.88-2.8,2.09-2.8s2.1,1,2.1,2.9C67.06,22.73,66.15,23.72,64.83,23.72ZM76.7,15.53c-3.25,0-5.35,2-5.35,5.21A5,5,0,0,0,76.7,26C80,26,82,24,82,20.74A5,5,0,0,0,76.7,15.53Zm0,8.19c-1.19,0-1.93-1-1.93-3s.74-2.94,1.93-2.94,1.93.94,1.93,2.94S77.88,23.72,76.7,23.72Zm16.74-7.95H89.79l-2,7.27-2-7.27H82l4.13,10.38-.14.27a1.56,1.56,0,0,1-1.62.95,6.56,6.56,0,0,1-.92,0V29.5a9.13,9.13,0,0,0,1.42.1c2.37,0,3.45-.74,4.71-3.89Zm6.67,9.94h3.28a14.38,14.38,0,0,1-.17-2.5V20.43c0-.6,0-1.18-.07-1.69-.14-1.79-1.22-3.21-4.36-3.21-2.51,0-4.57,1.32-4.57,3.65h3.15c.06-.88.5-1.35,1.28-1.35a1.06,1.06,0,0,1,1.18,1,5,5,0,0,1,0,.74v.14h-.64c-3.35,0-5.38,1.28-5.38,3.41A3,3,0,0,0,97,26a4.77,4.77,0,0,0,2.47-.68l.4-1.05Zm-1.73-2c-.68,0-1.12-.34-1.12-.92,0-1,1.09-1.38,2.61-1.25v.64A1.51,1.51,0,0,1,98.38,23.72Zm14.17,3.61V25.54h-7.44v1.79ZM121.48,13a12.24,12.24,0,0,0-1.62-.07H115V25.71h4.87a12.24,12.24,0,0,0,1.62-.07c3-.33,5.45-2.47,5.45-6.49S124.43,13.3,121.48,13Zm-.91,10.11a12.13,12.13,0,0,1-1.22,0h-1V15.5h1c.47,0,.78,0,1.22,0,1.66.14,2.81,1.35,2.81,3.65S122.26,22.94,120.57,23.07Zm17.59-2.47a4.82,4.82,0,0,0-5-5.07,5.06,5.06,0,0,0-5.31,5.24A5.19,5.19,0,0,0,138,22.43h-3.28A1.52,1.52,0,0,1,133,23.68c-1,0-1.66-.47-1.83-2.13h6.9C138.12,21.25,138.16,20.91,138.16,20.6ZM133,17.8c.88,0,1.46.57,1.66,1.72h-3.35C131.49,18.3,132.1,17.8,133,17.8Zm17.05-2h-3.65l-2,7.27-2-7.27H138.6l3.92,9.94h3.59Z" fill="#ffbf3e"/></g><g id="_13c51c62-0b7b-4bfa-b72e-28e2d4ae9359" data-name="13c51c62-0b7b-4bfa-b72e-28e2d4ae9359"><path d="M21.35,22.88h-7.1a1.42,1.42,0,1,0,0,2.83h7.1a1.43,1.43,0,0,0,1.42-1.42A1.4,1.4,0,0,0,21.35,22.88ZM12.43,19,8.15,14.73a1.43,1.43,0,0,0-2,2L9.4,20,6.13,23.28a1.46,1.46,0,0,0,0,2,1.37,1.37,0,0,0,2,0L12.43,21a1.46,1.46,0,0,0,0-2Z" fill="#ffbf3e"/><path d="M25.63,8.63H2.86A2.86,2.86,0,0,0,0,11.49V28.57a2.86,2.86,0,0,0,2.86,2.86H25.63a2.86,2.86,0,0,0,2.86-2.86V11.49a2.86,2.86,0,0,0-2.86-2.86ZM2.86,28.57V11.49H25.63V28.57Z" fill="#ffbf3e"/></g></g></svg>