<svg xmlns="http://www.w3.org/2000/svg" viewBox="0 0 2011.46 305.32"><defs><style>.cls-1{fill:#ffbf3e;}</style></defs><g id="Layer_2" data-name="Layer 2"><g id="Layer_1-2" data-name="Layer 1"><g id="_49783af3-95ec-40ca-9b83-33f9fad262dd" data-name="49783af3-95ec-40ca-9b83-33f9fad262dd"><path class="cls-1" d="M561.69,53.31c-34.18,0-65.15,18.69-65.15,52,0,34.35,23,46.46,62.12,56.25,21.19,5.16,27.6,13,27.6,21.9,0,9.43-9.44,16-21.9,16-13.35,0-26.7-6.94-29.55-23.14H490c2.67,38.63,32,56.07,75.66,56.07,34.71,0,67.64-17.44,67.64-52,0-26.35-15.48-45.22-53.4-54.29-28.48-6.77-36.32-13.36-36.32-24.39,0-10.51,7-15.49,17.09-15.49,14.78,0,22.25,9.43,24.21,23.68h44.86C626,78.05,607.08,53.31,561.69,53.31ZM728.85,228.83h44a210.87,210.87,0,0,1-2.49-33.64V157.8c0-8.19-.36-16-.89-22.61-2-24.21-16.38-42.9-58.57-42.9-33.65,0-61.24,17.63-61.42,48.78l42.37-.18c.71-11.57,6.59-18.16,17.09-18.16,9.79,0,15.31,5.88,16,12.64a68.75,68.75,0,0,1,.54,9.79v2h-8.55c-45,0-72.1,17.45-72.1,45.75,0,25.81,20.83,39.52,42.73,39.52a61,61,0,0,0,32.93-9.08l5.34-13.88Zm-23-26.88c-8.9,0-15.13-4.45-15.13-12.46,0-13.17,14.42-18.51,34.72-16.91v8.72C725.47,195.19,715,202,705.88,202Zm180-109.66c-13.35,0-26.35,2.67-33.82,8.19l-10,14.78V45.65H797.21V228.83h44.86V211.56l8.72,14.25c6.77,4.09,19.58,6.58,30.62,6.58,34.18,0,63-25.81,63-73.16C944.43,119.88,922,92.29,885.86,92.29ZM869.13,202c-13.36,0-27.06-9.08-27.06-35.6v-5.88c0-27.77,11.92-37.74,28.3-37.74,15.85,0,28.31,13.89,28.31,38.81C898.68,188.78,886.57,202,869.13,202ZM1027.92,92.29c-43.62,0-71.57,27.06-71.57,70,0,42.73,27.95,70.14,71.57,70.14s71.56-27.41,71.56-70.14C1099.48,119.35,1071.53,92.29,1027.92,92.29Zm0,109.66c-15.85,0-25.64-13.17-25.64-39.7,0-26.7,9.79-39.52,25.64-39.52,16,0,25.63,12.82,25.63,39.52C1053.55,188.78,1043.94,202,1027.92,202ZM1252.58,95.67h-49.14l-27.23,97.56-27.42-97.56H1099l55.18,139.21-1.78,3.74c-4.27,9.44-11.57,12.82-21.89,12.82-4.63,0-8.55,0-12.29-.36v28.84a107.1,107.1,0,0,0,18.87,1.25c31.69,0,46.11-10.15,62.84-52.34Zm89.36,133.16h44a210.87,210.87,0,0,1-2.49-33.64V157.8c0-8.19-.36-16-.89-22.61-2-24.21-16.38-42.9-58.57-42.9-33.64,0-61.24,17.63-61.42,48.78l42.37-.18c.71-11.57,6.59-18.16,17.09-18.16,9.79,0,15.31,5.88,16,12.64a68.75,68.75,0,0,1,.54,9.79v2H1330c-45,0-72.09,17.45-72.09,45.75,0,25.81,20.82,39.52,42.72,39.52a61,61,0,0,0,32.93-9.08l5.34-13.88ZM1319,202c-8.9,0-15.14-4.45-15.14-12.46,0-13.17,14.42-18.51,34.72-16.91v8.72C1338.56,195.19,1328.06,202,1319,202Zm189.94,48.78V226.87h-99.69v23.86Zm119.45-192.8c-8.72-1.06-12.82-1.06-21.9-1.06h-65.15v172h65.15c9.08,0,13.18,0,21.9-1.07,39.88-4.45,72.81-33.29,72.81-87.23C1701.18,86.77,1668.25,62.39,1628.37,57.93Zm-11.93,135.48a160,160,0,0,1-16.2.53h-14.06V91.76h14.06a160,160,0,0,1,16.2.53c22.43,2,37.74,18.34,37.74,49.13C1654.18,172,1638.87,191.45,1616.44,193.41ZM1852,160.47c0-34.35-22.43-68.18-66.93-68.18-44.33,0-71,31.69-71,70.5,0,46.82,30.44,69.6,68.53,69.6,34.18,0,59.11-17.09,66.94-47.17h-44.15c-1.78,10.14-9.44,16.73-22.25,16.73-12.64,0-22.43-6.23-24.57-28.48h92.57A112.15,112.15,0,0,0,1852,160.47Zm-69.07-37.74c11.93,0,19.58,7.66,22.07,23.32h-45C1763,129.68,1771.14,122.73,1782.89,122.73Zm228.57-27.06h-49.13l-27.24,97.56-27.41-97.56h-49.84l52.69,133.16h48.24Z"/></g><g id="_13c51c62-0b7b-4bfa-b72e-28e2d4ae9359" data-name="13c51c62-0b7b-4bfa-b72e-28e2d4ae9359"><path class="cls-1" d="M286.24,190.82H190.82a19.09,19.09,0,0,0,0,38.17h95.42a19.09,19.09,0,0,0,0-38.17ZM166.18,139.14,108.94,81.89a19.07,19.07,0,0,0-27,27l43.73,43.72-43.8,43.8a19.08,19.08,0,0,0,0,27c3.76,3.76,13.52,11.27,27,0l57.25-57.24a19,19,0,0,0,.07-27Z"/><path class="cls-1" d="M343.48,0H38.16A38.22,38.22,0,0,0,0,38.16v229a38.22,38.22,0,0,0,38.16,38.17H343.48a38.22,38.22,0,0,0,38.17-38.17v-229A38.22,38.22,0,0,0,343.48,0ZM38.16,267.15v-229H343.48v229Z"/></g></g></g></svg>